<svg xmlns="http://www.w3.org/2000/svg" width="256" height="256" viewBox="0 0 100 100"><rect width="100" height="100" rx="50" fill="#000000"></rect><path d="M54.91 22.55L54.91 22.55Q55.36 22.37 56.30 22.15Q57.24 21.92 58.23 21.92L58.23 21.92Q62.20 21.92 62.20 25.25L62.20 25.25L62.20 63.77Q62.20 67.82 61.02 70.56Q59.86 73.31 57.83 74.98Q55.80 76.64 53.15 77.36Q50.49 78.08 47.61 78.08L47.61 78.08Q42.48 78.08 40.14 76.87Q37.80 75.65 37.80 73.67L37.80 73.67Q37.80 72.41 38.34 71.51Q38.88 70.61 39.34 70.16L39.34 70.16Q40.69 70.79 42.58 71.33Q44.47 71.87 46.53 71.87L46.53 71.87Q50.59 71.87 52.74 69.94Q54.91 68 54.91 63.41L54.91 63.41L54.91 22.55Z" fill="#fde910"></path></svg>